<?xml version="1.0" encoding="utf-8"?>
<!-- Generator: Adobe Illustrator 21.0.2, SVG Export Plug-In . SVG Version: 6.00 Build 0)  -->
<svg version="1.1" id="Layer_1" xmlns="http://www.w3.org/2000/svg" xmlns:xlink="http://www.w3.org/1999/xlink" x="0px" y="0px"
	 viewBox="0 0 151 151" style="enable-background:new 0 0 151 151;" xml:space="preserve">
<path d="M75.5,2.3c-8,0-15.8,1.3-23.3,3.8c-0.1,0-0.3,0.1-0.4,0.1c-0.1,0-0.1,0-0.1,0.1C22.1,16.5,2.3,44.3,2.3,75.5
	c0,40.4,32.8,73.2,73.2,73.2c10.1,0,19.8-2,29-6c0.2-0.1,0.4-0.1,0.6-0.2l0.1,0l0,0c26.5-11.8,43.6-38,43.6-66.9
	C148.7,35.1,115.9,2.3,75.5,2.3z M105.4,133.6L72.3,48.4L98,14.2c25.7,9.4,42.8,34,42.8,61.3c0,12.5-3.5,24.6-10.3,35.1
	C124.3,120.4,115.6,128.3,105.4,133.6z M75.5,140.8c-36,0-65.4-29.3-65.4-65.3c0-13.5,4.1-26.4,11.8-37.4
	C29.3,27.7,39.2,19.7,50.9,15l12.5,32.1l-19,23.4c-1.1,1.4-1.1,3.3-0.1,4.7l0,0.1l0,0l52.3,62.1C89.9,139.7,82.8,140.8,75.5,140.8z
	 M52.5,72.9l14.2-17.3l24.5,63L52.5,72.9z M75.5,10.2c4.9,0,9.7,0.5,14.5,1.6l-21,28L58.4,12.4C63.9,10.9,69.7,10.2,75.5,10.2z"/>
</svg>
