<?xml version="1.0" encoding="UTF-8"?>
<svg width="142px" height="142px" viewBox="0 0 142 142" version="1.1" xmlns="http://www.w3.org/2000/svg" xmlns:xlink="http://www.w3.org/1999/xlink">
    <!-- Generator: Sketch 43.2 (39069) - http://www.bohemiancoding.com/sketch -->
    <title>Shape</title>
    <desc>Created with Sketch.</desc>
    <defs></defs>
    <g id="Page-1" stroke="none" stroke-width="1" fill="none" fill-rule="evenodd">
        <path d="M70.9522184,1 C109.559727,1 140.904437,32.3661202 141,71.0956284 C141,98.7322404 124.658703,123.786885 99.2389078,135.071038 C99.0477816,135.166667 98.8566553,135.166667 98.665529,135.262295 C89.8737201,139.087432 80.6040956,141 70.9522184,141 C32.3447099,141 1,109.63388 1,71 C1,41.1639344 19.9215017,14.579235 48.2081911,4.82513661 C48.4277877,4.74580425 48.4410863,4.74146842 48.6860068,4.63387978 C55.8532423,2.2431694 63.3071672,1 70.9522184,1 Z M99.5255973,126.560109 C109.273038,121.491803 117.587031,113.937158 123.511945,104.565574 C130.010239,94.5245902 133.354949,82.9535519 133.354949,71 C133.354949,44.8934426 117.013652,21.3688525 92.4539249,12.3797814 L67.894198,45.0846995 L99.5255973,126.560109 Z M70.9522184,133.445355 C77.9283276,133.445355 84.7133106,132.393443 91.116041,130.193989 L41.1365188,70.8087432 L41.1365188,70.7131148 C40.1808874,69.3743169 40.1808874,67.557377 41.2320819,66.2185792 L59.3890785,43.8415301 L47.443686,13.1448087 C36.2627986,17.6393443 26.8020478,25.2896175 19.7303754,35.2349727 C12.3720137,45.7540984 8.45392491,58.0901639 8.45392491,71 C8.45392491,105.42623 36.5494881,133.445355 70.9522184,133.445355 Z M48.9726962,68.5136612 L85.9556314,112.215847 L62.5426621,51.9699454 L48.9726962,68.5136612 Z M70.9522184,8.55464481 C65.4095563,8.55464481 59.8668942,9.22404372 54.6109215,10.6584699 L64.7406143,36.8606557 L84.8088737,10.0846995 C80.221843,9.03278689 75.6348123,8.55464481 70.9522184,8.55464481 Z" id="Shape" stroke="#000000" stroke-width="2" fill="#000000" fill-rule="nonzero"></path>
    </g>
</svg>